<svg width="100" height="100" viewBox="0 0 100 90" fill="none" xmlns="http://www.w3.org/2000/svg">
<path fill-rule="evenodd" clip-rule="evenodd" d="M49.8863 61.5878C64.1831 61.5878 75.7727 50.0394 75.7727 35.7939C75.7727 21.5483 64.1831 10 49.8863 10C35.5897 10 24 21.5483 24 35.7939C24 50.0394 35.5897 61.5878 49.8863 61.5878ZM53.8819 29.9291C56.0885 27.7303 56.0885 24.1654 53.8819 21.9666C51.6752 19.7679 48.0976 19.7679 45.8909 21.9666C43.6843 24.1654 43.6843 27.7303 45.8909 29.9291L49.8863 33.9103L53.8819 29.9291ZM55.7723 39.7751C57.9789 41.9739 61.5566 41.9739 63.7633 39.7751C65.9698 37.5763 65.9698 34.0115 63.7633 31.8127C61.5566 29.614 57.9789 29.614 55.7723 31.8127L51.7768 35.794L55.7723 39.7751ZM53.8819 49.6212C56.0885 47.4224 56.0885 43.8575 53.8819 41.6587L49.8863 37.6776L45.8909 41.6587C43.6843 43.8575 43.6843 47.4224 45.8909 49.6212C48.0976 51.82 51.6752 51.82 53.8819 49.6212ZM36.0095 39.7751C33.8029 37.5763 33.8029 34.0115 36.0095 31.8127C38.2162 29.614 41.7939 29.614 44.0006 31.8127L47.996 35.794L44.0006 39.7751C41.7939 41.9739 38.2162 41.9739 36.0095 39.7751Z" fill="#3F6666"/>
</svg>